# Blender v2.79 (sub 0) OBJ File: ''
# www.blender.org
mtllib cube.mtl
o Cube
v 1.000000 -1.000000 -1.000000
v 1.000000 -1.000000 1.000000
v -1.000000 -1.000000 1.000000
v -1.000000 -1.000000 -1.000000
v 1.000000 1.000000 -0.999999
v 0.999999 1.000000 1.000001
v -1.000000 1.000000 1.000000
v -1.000000 1.000000 -1.000000
vt 0.333366 0.000100
vt 0.666633 0.250050
vt 0.333366 0.250050
vt 0.666633 0.500000
vt 0.333367 0.749950
vt 0.333367 0.500000
vt 0.000100 0.749950
vt 0.000100 0.500000
vt 0.666633 0.999900
vt 0.333367 0.999900
vt 0.999900 0.749950
vt 0.999900 0.500000
vt 0.666633 0.000100
vt 0.666633 0.749950
vn 0.0000 -1.0000 0.0000
vn 0.0000 1.0000 0.0000
vn 1.0000 -0.0000 0.0000
vn 0.0000 -0.0000 1.0000
vn -1.0000 -0.0000 -0.0000
vn 0.0000 0.0000 -1.0000
usemtl Material
s off
f 2/1/1 4/2/1 1/3/1
f 8/4/2 6/5/2 5/6/2
f 5/6/3 2/7/3 1/8/3
f 6/5/4 3/9/4 2/10/4
f 3/11/5 8/4/5 4/12/5
f 1/3/6 8/4/6 5/6/6
f 2/1/1 3/13/1 4/2/1
f 8/4/2 7/14/2 6/5/2
f 5/6/3 6/5/3 2/7/3
f 6/5/4 7/14/4 3/9/4
f 3/11/5 7/14/5 8/4/5
f 1/3/6 4/2/6 8/4/6
