# Blender v2.78 (sub 0) OBJ File: ''
# www.blender.org
mtllib pyramid.mtl
o Cube.004
v 1.000000 -1.000000 -1.000000
v 1.000000 -1.000000 1.000000
v -1.000000 -1.000000 1.000000
v -1.000000 -1.000000 -1.000000
v 0.000000 1.000000 0.000000
vt 0.0000 0.0000
vt 0.0000 0.0000
vt 0.0000 0.0000
vt 0.0000 0.0000
vt 0.0000 0.0000
vt 1.0000 0.0000
vt 0.5000 1.0000
vn 0.0000 -1.0000 -0.0000
vn -0.8944 0.4472 0.0000
vn 0.8944 0.4472 0.0000
vn 0.0000 0.4472 0.8944
vn 0.0000 0.4472 -0.8944
usemtl Material.002
s off
f 2/1/1 4/2/1 1/3/1
f 4/2/2 3/4/2 5/5/2
f 2/1/3 1/6/3 5/7/3
f 3/4/4 2/1/4 5/5/4
f 4/2/5 5/5/5 1/3/5
f 2/1/1 3/4/1 4/2/1
